# xmcd
#
# Track frame offsets:
#	150
#	13024
#	30134
#	44811
#	58898
#	72568
#	85568
#	95795
#	106649
#	122770
#	138070
#	153885
#	170158
#	191823
#	212643
#
# Disc length: 3135 seconds
#
# Revision: 0
# Processed by: cddbd v1.4PL0 Copyright (c) Steve Scherf et al.
# Submitted via: dBpowerAMP V4.0
#
DISCID=cc0c3d0f
DTITLE=Erin Hay - Honky Tonk Heaven
DYEAR=1900
DGENRE=Country
TTITLE0=You're A Lesson I've Already Learned
TTITLE1=There Goes My Everything
TTITLE2=Bad Luck
TTITLE3=Honky Tonk Heaven
TTITLE4=Poison Of Your Kiss
TTITLE5=I Got The Blues Again
TTITLE6=Alone With You
TTITLE7=Honky Tonk Girl
TTITLE8=Autumn's Not That Cold
TTITLE9=My Hands Are Full
TTITLE10=If The Phone Don't Ring
TTITLE11=Mirror! Mirror! (On The Wall)
TTITLE12=Cheater's Moon
TTITLE13=Your Good Girl's Gonna Go Bad
TTITLE14=DATA
EXTD=
EXTT0=
EXTT1=
EXTT2=
EXTT3=
EXTT4=
EXTT5=
EXTT6=
EXTT7=
EXTT8=
EXTT9=
EXTT10=
EXTT11=
EXTT12=
EXTT13=
EXTT14=
PLAYORDER=
